# xmcd
#
# Track frame offsets:
#	150
#	35222
#	68837
#	107657
#	138885
#	172722
#
# Disc length: 2726 seconds
#
# Revision: 0
# Processed by: cddbd v1.5.1PL2 Copyright (c) Steve Scherf et al.
# Submitted via: dBpowerAMP V4.0
#
DISCID=490aa406
DTITLE=Mahendra Kapoor - 12 Jyotrilinga
DYEAR=1900
DGENRE=Hindu
TTITLE0=Sri someshwar
TTITLE1=Sri malikarjun
TTITLE2=Sri Mahakaleshwar
TTITLE3=Sri Mamaleshwar
TTITLE4=Sri Kedareshwar
TTITLE5=Sri Bhimeshwar
EXTD=
EXTT0=
EXTT1=
EXTT2=
EXTT3=
EXTT4=
EXTT5=
PLAYORDER=
